<svg xmlns:xlink="http://www.w3.org/1999/xlink" xmlns="http://www.w3.org/2000/svg" role="presentation" height="16" width="16" aria-hidden="true" class="Svg-sc-ytk21e-0 uPxdw" viewBox="0 0 16 16" data-encore-id="icon"><path d="M2 3.75C2 2.784 2.784 2 3.75 2h8.5c.966 0 1.75.784 1.75 1.75v6.5A1.75 1.75 0 0112.25 12h-8.5A1.75 1.75 0 012 10.25v-6.5zm1.75-.25a.25.25 0 00-.25.25v6.5c0 .138.112.25.25.25h8.5a.25.25 0 00.25-.25v-6.5a.25.25 0 00-.25-.25h-8.5zM.25 15.25A.75.75 0 011 14.5h14a.75.75 0 010 1.5H1a.75.75 0 01-.75-.75z" fill="#1DB954"></path></svg>